<mxfile host="app.diagrams.net" agent="Mozilla/5.0 (Macintosh; Intel Mac OS X 10_15_7) AppleWebKit/537.36 (KHTML, like Gecko) Chrome/136.0.0.0 Safari/537.36 Edg/136.0.0.0" version="25.0.3">
  <diagram name="Page-1" id="oq9UhVd-xTNGNrDHQ1Vr">
    <mxGraphModel dx="2253" dy="764" grid="1" gridSize="10" guides="1" tooltips="1" connect="1" arrows="1" fold="1" page="1" pageScale="1" pageWidth="827" pageHeight="1169" math="0" shadow="0">
      <root>
        <mxCell id="0" />
        <mxCell id="1" parent="0" />
        <mxCell id="jJBk85IeVMEvuHltUpp9-24" value="" style="rounded=0;whiteSpace=wrap;html=1;" vertex="1" parent="1">
          <mxGeometry x="-290" y="110" width="310" height="420" as="geometry" />
        </mxCell>
        <mxCell id="jJBk85IeVMEvuHltUpp9-28" style="edgeStyle=orthogonalEdgeStyle;rounded=0;orthogonalLoop=1;jettySize=auto;html=1;exitX=1;exitY=0.25;exitDx=0;exitDy=0;" edge="1" parent="1" source="jJBk85IeVMEvuHltUpp9-21" target="jJBk85IeVMEvuHltUpp9-26">
          <mxGeometry relative="1" as="geometry" />
        </mxCell>
        <mxCell id="jJBk85IeVMEvuHltUpp9-21" value="" style="rounded=0;whiteSpace=wrap;html=1;" vertex="1" parent="1">
          <mxGeometry x="67" y="120" width="760" height="410" as="geometry" />
        </mxCell>
        <mxCell id="jJBk85IeVMEvuHltUpp9-10" value="" style="edgeStyle=orthogonalEdgeStyle;rounded=0;orthogonalLoop=1;jettySize=auto;html=1;entryX=0;entryY=0.474;entryDx=0;entryDy=0;entryPerimeter=0;exitX=0.976;exitY=0.546;exitDx=0;exitDy=0;exitPerimeter=0;" edge="1" parent="1" source="jJBk85IeVMEvuHltUpp9-5" target="jJBk85IeVMEvuHltUpp9-8">
          <mxGeometry relative="1" as="geometry">
            <mxPoint x="-47.49999999999986" y="270.03599999999994" as="sourcePoint" />
            <mxPoint x="55.00000000000014" y="270" as="targetPoint" />
          </mxGeometry>
        </mxCell>
        <mxCell id="jJBk85IeVMEvuHltUpp9-5" value="" style="aspect=fixed;sketch=0;html=1;dashed=0;whitespace=wrap;verticalLabelPosition=bottom;verticalAlign=top;fillColor=#2875E2;strokeColor=#ffffff;points=[[0.005,0.63,0],[0.1,0.2,0],[0.9,0.2,0],[0.5,0,0],[0.995,0.63,0],[0.72,0.99,0],[0.5,1,0],[0.28,0.99,0]];shape=mxgraph.kubernetes.icon2;kubernetesLabel=1;prIcon=api" vertex="1" parent="1">
          <mxGeometry x="-200" y="207" width="125" height="120" as="geometry" />
        </mxCell>
        <mxCell id="jJBk85IeVMEvuHltUpp9-6" value="&lt;b&gt;SERP API&lt;/b&gt;" style="text;html=1;align=center;verticalAlign=middle;whiteSpace=wrap;rounded=0;" vertex="1" parent="1">
          <mxGeometry x="-167.5" y="330" width="60" height="30" as="geometry" />
        </mxCell>
        <mxCell id="jJBk85IeVMEvuHltUpp9-7" value="&lt;b&gt;&lt;font face=&quot;Verdana&quot;&gt;Google Jobs API&lt;/font&gt;&lt;/b&gt;" style="text;html=1;align=center;verticalAlign=middle;whiteSpace=wrap;rounded=0;fontStyle=2" vertex="1" parent="1">
          <mxGeometry x="-215.00000000000003" y="350" width="140" height="30" as="geometry" />
        </mxCell>
        <mxCell id="jJBk85IeVMEvuHltUpp9-8" value="" style="image;aspect=fixed;html=1;points=[];align=center;fontSize=12;image=img/lib/azure2/analytics/Azure_Databricks.svg;" vertex="1" parent="1">
          <mxGeometry x="105.25999999999999" y="216" width="105.29" height="114" as="geometry" />
        </mxCell>
        <mxCell id="jJBk85IeVMEvuHltUpp9-11" value="&lt;b&gt;&lt;font face=&quot;Verdana&quot;&gt;Bronze Layer&lt;/font&gt;&lt;/b&gt;" style="text;html=1;align=center;verticalAlign=middle;whiteSpace=wrap;rounded=0;fontStyle=2" vertex="1" parent="1">
          <mxGeometry x="97.91" y="330" width="140" height="30" as="geometry" />
        </mxCell>
        <mxCell id="jJBk85IeVMEvuHltUpp9-12" value="&lt;b&gt;&lt;font face=&quot;Courier New&quot;&gt;Ingestion of API Data&lt;/font&gt;&lt;/b&gt;" style="text;html=1;align=center;verticalAlign=middle;whiteSpace=wrap;rounded=0;fontStyle=2" vertex="1" parent="1">
          <mxGeometry x="77.91" y="350" width="170" height="30" as="geometry" />
        </mxCell>
        <mxCell id="jJBk85IeVMEvuHltUpp9-20" style="edgeStyle=orthogonalEdgeStyle;rounded=0;orthogonalLoop=1;jettySize=auto;html=1;" edge="1" parent="1" source="jJBk85IeVMEvuHltUpp9-13" target="jJBk85IeVMEvuHltUpp9-17">
          <mxGeometry relative="1" as="geometry" />
        </mxCell>
        <mxCell id="jJBk85IeVMEvuHltUpp9-13" value="" style="image;aspect=fixed;html=1;points=[];align=center;fontSize=12;image=img/lib/azure2/analytics/Azure_Databricks.svg;" vertex="1" parent="1">
          <mxGeometry x="377.90999999999997" y="213" width="105.29" height="114" as="geometry" />
        </mxCell>
        <mxCell id="jJBk85IeVMEvuHltUpp9-14" value="&lt;b&gt;&lt;font face=&quot;Courier New&quot;&gt;Structuring and Standardization of Data&lt;/font&gt;&lt;/b&gt;" style="text;html=1;align=center;verticalAlign=middle;whiteSpace=wrap;rounded=0;fontStyle=2" vertex="1" parent="1">
          <mxGeometry x="345.55999999999995" y="350" width="170" height="30" as="geometry" />
        </mxCell>
        <mxCell id="jJBk85IeVMEvuHltUpp9-15" value="&lt;b&gt;&lt;font face=&quot;Verdana&quot;&gt;Silver Layer&lt;/font&gt;&lt;/b&gt;" style="text;html=1;align=center;verticalAlign=middle;whiteSpace=wrap;rounded=0;fontStyle=2" vertex="1" parent="1">
          <mxGeometry x="360.55999999999995" y="327" width="140" height="30" as="geometry" />
        </mxCell>
        <mxCell id="jJBk85IeVMEvuHltUpp9-16" style="edgeStyle=orthogonalEdgeStyle;rounded=0;orthogonalLoop=1;jettySize=auto;html=1;entryX=0;entryY=0.526;entryDx=0;entryDy=0;entryPerimeter=0;" edge="1" parent="1" source="jJBk85IeVMEvuHltUpp9-8" target="jJBk85IeVMEvuHltUpp9-13">
          <mxGeometry relative="1" as="geometry" />
        </mxCell>
        <mxCell id="jJBk85IeVMEvuHltUpp9-17" value="" style="image;aspect=fixed;html=1;points=[];align=center;fontSize=12;image=img/lib/azure2/analytics/Azure_Databricks.svg;" vertex="1" parent="1">
          <mxGeometry x="680" y="213" width="105.29" height="114" as="geometry" />
        </mxCell>
        <mxCell id="jJBk85IeVMEvuHltUpp9-18" value="&lt;b&gt;&lt;font face=&quot;Verdana&quot;&gt;Golden Layer&lt;/font&gt;&lt;/b&gt;" style="text;html=1;align=center;verticalAlign=middle;whiteSpace=wrap;rounded=0;fontStyle=2" vertex="1" parent="1">
          <mxGeometry x="662.6499999999999" y="330" width="140" height="30" as="geometry" />
        </mxCell>
        <mxCell id="jJBk85IeVMEvuHltUpp9-19" value="&lt;font face=&quot;Courier New&quot;&gt;&lt;b&gt;Ready for BI/ Dashboards&lt;/b&gt;&lt;/font&gt;" style="text;html=1;align=center;verticalAlign=middle;whiteSpace=wrap;rounded=0;fontStyle=2" vertex="1" parent="1">
          <mxGeometry x="647.6499999999999" y="350" width="170" height="30" as="geometry" />
        </mxCell>
        <mxCell id="jJBk85IeVMEvuHltUpp9-22" value="&lt;b&gt;&lt;font style=&quot;font-size: 72px;&quot;&gt;ETL Process&lt;/font&gt;&lt;/b&gt;" style="text;html=1;align=center;verticalAlign=middle;whiteSpace=wrap;rounded=0;" vertex="1" parent="1">
          <mxGeometry x="137.65" y="70" width="570" height="30" as="geometry" />
        </mxCell>
        <mxCell id="jJBk85IeVMEvuHltUpp9-23" value="&lt;b&gt;&lt;font style=&quot;font-size: 18px;&quot;&gt;Source System&lt;/font&gt;&lt;/b&gt;" style="text;html=1;align=center;verticalAlign=middle;whiteSpace=wrap;rounded=0;" vertex="1" parent="1">
          <mxGeometry x="-420" y="80" width="570" height="30" as="geometry" />
        </mxCell>
        <mxCell id="jJBk85IeVMEvuHltUpp9-26" value="" style="rounded=0;whiteSpace=wrap;html=1;" vertex="1" parent="1">
          <mxGeometry x="1010" y="130" width="320" height="410" as="geometry" />
        </mxCell>
        <mxCell id="jJBk85IeVMEvuHltUpp9-27" value="&lt;b&gt;&lt;font style=&quot;font-size: 72px;&quot;&gt;Final Report&lt;/font&gt;&lt;/b&gt;" style="text;html=1;align=center;verticalAlign=middle;whiteSpace=wrap;rounded=0;" vertex="1" parent="1">
          <mxGeometry x="900" y="80" width="570" height="30" as="geometry" />
        </mxCell>
        <mxCell id="jJBk85IeVMEvuHltUpp9-29" value="" style="image;aspect=fixed;html=1;points=[];align=center;fontSize=12;image=img/lib/azure2/analytics/Power_BI_Embedded.svg;" vertex="1" parent="1">
          <mxGeometry x="1080" y="209.5" width="173.25" height="231" as="geometry" />
        </mxCell>
        <mxCell id="jJBk85IeVMEvuHltUpp9-30" value="&lt;font face=&quot;Courier New&quot;&gt;&lt;b&gt;Create a BI Report using Golden Layer&lt;/b&gt;&lt;/font&gt;" style="text;html=1;align=center;verticalAlign=middle;whiteSpace=wrap;rounded=0;fontStyle=2" vertex="1" parent="1">
          <mxGeometry x="1081.63" y="450" width="170" height="30" as="geometry" />
        </mxCell>
      </root>
    </mxGraphModel>
  </diagram>
</mxfile>
